<svg xmlns="http://www.w3.org/2000/svg" viewBox="0 0 1200 760">
  <defs>
    <linearGradient id="sky" x1="0" x2="0" y1="0" y2="1">
      <stop offset="0%" stop-color="#19161a"/>
      <stop offset="60%" stop-color="#4a2f25"/>
      <stop offset="100%" stop-color="#c58852"/>
    </linearGradient>
    <linearGradient id="sun" x1="0" x2="1">
      <stop offset="0%" stop-color="#ffd37a"/>
      <stop offset="100%" stop-color="#ff8f3d"/>
    </linearGradient>
  </defs>
  <rect width="1200" height="760" fill="url(#sky)"/>
  <circle cx="920" cy="170" r="90" fill="url(#sun)" opacity="0.95"/>
  <rect x="0" y="520" width="1200" height="240" fill="#2d261f"/>
  <path d="M0 520 C180 470, 320 560, 500 520 S840 470, 1200 535 L1200 760 L0 760 Z" fill="#4d3628"/>
  <path d="M40 520 L120 400 L150 520 Z" fill="#31251d"/>
  <path d="M170 520 L250 390 L300 520 Z" fill="#372922"/>
  <path d="M880 520 L980 350 L1040 520 Z" fill="#31251d"/>
  <path d="M980 520 L1070 410 L1140 520 Z" fill="#372922"/>
  <rect x="500" y="320" width="220" height="170" rx="18" fill="#2a323a"/>
  <rect x="530" y="350" width="160" height="110" rx="10" fill="#10161d"/>
  <rect x="590" y="250" width="40" height="85" fill="#45545d"/>
  <rect x="560" y="230" width="100" height="26" rx="8" fill="#596a73"/>
  <circle cx="610" cy="408" r="32" fill="#78ff98" opacity="0.8"/>
  <rect x="720" y="356" width="70" height="16" rx="8" fill="#60717b"/>
  <rect x="740" y="382" width="100" height="16" rx="8" fill="#60717b"/>
  <rect x="760" y="408" width="78" height="16" rx="8" fill="#60717b"/>
  <g opacity="0.75">
    <rect x="250" y="460" width="25" height="60" fill="#161312"/>
    <rect x="600" y="470" width="18" height="50" fill="#161312"/>
    <rect x="780" y="450" width="22" height="70" fill="#161312"/>
    <rect x="1110" y="470" width="20" height="50" fill="#161312"/>
  </g>
  <text x="70" y="130" fill="#ffe8bf" font-size="52" font-family="Arial, sans-serif" font-weight="700">FALLOUT ARCHIVE</text>
  <text x="70" y="185" fill="#f7cf84" font-size="28" font-family="Arial, sans-serif">Пыль, радиоактивный ветер и память о старом мире</text>
</svg>